<svg xmlns="http://www.w3.org/2000/svg" xmlns:xlink="http://www.w3.org/1999/xlink" viewBox="0 0 263 263"><defs><linearGradient x1="50%" y1="0%" x2="50%" y2="100%" id="b"><stop stop-color="#16A675" offset="0%"/><stop stop-color="#0B8D61" offset="100%"/></linearGradient><filter id="c"><feColorMatrix in="SourceGraphic" values="0 0 0 0 1.000000 0 0 0 0 1.000000 0 0 0 0 1.000000 0 0 0 1.000000 0"/></filter><rect id="a" x="0" y="0" width="263" height="263" rx="46"/></defs><g fill="none" fill-rule="evenodd"><use fill="#16A675" xlink:href="#a"/><use fill="url(#b)" xlink:href="#a"/><g filter="url(#c)" fill="#FFF"><g fill="none"><path d="M18 18h227v227H18z"/><g fill="#000" fill-rule="nonzero"><path d="M74.75 122.893V78.439l56.75-21.281 56.75 21.28v34.902c6.715.946 13.053 2.932 18.917 5.675V65.292L131.5 36.917 55.833 65.292v57.6c0 47.766 32.253 92.314 75.667 103.191.284-.094.473-.189.757-.189-7.472-7.377-13.242-16.646-16.552-26.861-24.308-15.228-40.955-44.644-40.955-76.14z"/><path d="M178.792 131.5c-26.105 0-47.292 21.187-47.292 47.292s21.187 47.291 47.292 47.291 47.291-21.186 47.291-47.291c0-26.105-21.186-47.292-47.291-47.292zm28.375 52.02H183.52v23.647h-9.458V183.52h-23.646v-9.458h23.645v-23.646h9.459v23.645h23.646v9.459z"/></g></g></g></g></svg>